<svg xmlns="http://www.w3.org/2000/svg" width="64" height="64" fill="none"><g fill="#FF6033" clip-path="url(#a)"><path d="m50.081 56.566-6.094-1.892 6.059-1.88a3.555 3.555 0 0 0-2.202-6.759L32 50.954l-15.844-4.919a3.554 3.554 0 1 0-2.202 6.759l6.06 1.88-6.095 1.892a3.554 3.554 0 1 0 2.202 6.758L32 58.394l15.879 4.93a3.554 3.554 0 0 0 2.201-6.758ZM26.202 44.567c0-8.727 5.818-17.183 5.818-17.183s5.82 8.456 5.82 17.183c17.145 0 16.237-17.155 12.108-25.912-.869-1.842-3.357-2.166-4.666-.606-3.355 4-7.324 6.26-7.324 6.26s3.144-9.234-3.098-18.691C33.043 2.863 30.278.996 27.908-.197c-1.873-.944-4.09.434-4.052 2.531.162 8.943-6.307 14.258-9.443 18.96-5.818 8.727-2.91 23.273 11.789 23.273Z"/></g><defs><clipPath id="a"><path fill="#fff" d="M0 0h64v64H0z"/></clipPath></defs></svg>