<svg xmlns="http://www.w3.org/2000/svg" fill="none" viewBox="0 0 24 24"><path fill="#fff" d="M21.499 4h-2.667v2A1.467 1.467 0 1 1 15.9 6V4H8.132v2A1.467 1.467 0 0 1 5.2 6V4H2.532a1.187 1.187 0 0 0-1.2 1.207v14.92A1.187 1.187 0 0 0 2.5 21.333h19a1.188 1.188 0 0 0 1.167-1.206V5.207A1.186 1.186 0 0 0 21.498 4ZM6.666 17.333H5.332V16h1.334v1.333Zm0-3.333H5.332v-1.333h1.334V14Zm0-3.333H5.332V9.333h1.334v1.334Zm4 6.666H9.332V16h1.333v1.333Zm0-3.333H9.332v-1.333h1.333V14Zm0-3.333H9.332V9.333h1.333v1.334Zm4 6.666h-1.334V16h1.333v1.333Zm0-3.333h-1.334v-1.333h1.333V14Zm0-3.333h-1.334V9.333h1.333v1.334Zm4 6.666h-1.334V16h1.334v1.333Zm0-3.333h-1.334v-1.333h1.334V14Zm0-3.333h-1.334V9.333h1.334v1.334Z"/><path fill="#fff" d="M6.667 6.666A.667.667 0 0 0 7.333 6V2A.667.667 0 1 0 6 2v4a.667.667 0 0 0 .667.666Zm10.668 0A.667.667 0 0 0 18 6V2a.666.666 0 1 0-1.333 0v4a.667.667 0 0 0 .667.666Z"/></svg>