<svg xmlns="http://www.w3.org/2000/svg" fill="none" viewBox="0 0 24 24"><path fill="#022C43" d="M4.137 3h3.028l-.483 6.623H4.62L4.137 3Zm1.52 10.378c-.482 0-.876-.132-1.18-.396-.293-.264-.44-.61-.44-1.037 0-.438.147-.788.44-1.052.304-.264.698-.396 1.18-.396.484 0 .873.132 1.167.396.294.264.44.614.44 1.051 0 .428-.146.774-.44 1.038-.294.264-.683.396-1.166.396Z"/><path stroke="#022C43" stroke-width="2" d="M7.769 16.618v3.313H3.773l3.996-3.313Zm7.024-5.765v9.077h-4.012v-5.8l4.012-3.277Zm7.04-5.752v14.83H17.82V8.36l4.013-3.26Z"/></svg>