<svg xmlns="http://www.w3.org/2000/svg" fill="none" viewBox="0 0 22 18"><path fill="#022C43" d="M3.137 0h3.028l-.483 6.623H3.62L3.137 0Zm1.52 10.378c-.482 0-.876-.132-1.18-.396-.293-.264-.44-.61-.44-1.037 0-.437.147-.788.44-1.052.304-.264.698-.396 1.18-.396.484 0 .873.132 1.167.396.294.264.44.615.44 1.052 0 .427-.146.773-.44 1.037-.294.264-.683.396-1.166.396Z"/><path stroke="#022C43" stroke-width="2" d="M6.769 13.618v3.312H2.773l3.996-3.312Zm7.024-5.765v9.078H9.78v-5.8l4.013-3.278Zm7.04-5.752v14.83H16.82V5.36l4.013-3.26Z"/></svg>