<svg xmlns="http://www.w3.org/2000/svg" viewBox="0 0 40 40"><path d="M37.375 21.875c-.25-.375-.625-.625-1.125-.625-2.75 0-5.375 1.25-7 3.5l-1.125 1.5c-1.375 1.625-3.5 2.5-5.625 2.5h-3.75c-.75 0-1.25-.5-1.25-1.25s.5-1.25 1.25-1.25h2.375c2 0 3.875-1.625 3.875-3.625V22.5c0-.625-.625-1.25-1.25-1.25h-7.625c-4.5 0-8.125 2-10.125 5.25l-3.375 5.25c-.25.375-.25.875 0 1.25l3.75 6.25c.125.25.5.5.75.625h.25c.25 0 .5-.125.75-.25A28.816 28.816 0 0 1 24 34.875c4.125 0 7.875-2.25 9.875-5.875l3.375-6c.25-.25.25-.75.125-1.125Z"/><path d="M16.125 18.75h7.625c2 0 3.75 1.625 3.75 3.625v.25l7.75-8a8 8 0 0 0 0-11.125c-1.5-1.375-3.375-2.25-5.375-2.25s-4 .875-5.5 2.375l-.625.625-.625-.625c-1.5-1.5-3.375-2.375-5.5-2.375-2 0-3.875.875-5.375 2.375a8 8 0 0 0 0 11.125l3.875 4Zm1.375-7.5h2l2.125-2.125c.25-.25.625-.375 1.125-.375.375.125.75.375.875.625l1.25 2.5 1.5-3.625c.125-.375.5-.75 1-.75s.875.125 1.125.5l2.5 3.75c.375.625.25 1.375-.375 1.75s-1.375.25-1.75-.375l-1.125-1.75-1.625 4c-.125.5-.625.875-1.125.875s-.875-.25-1.125-.75l-1.75-3.5-1.25 1.25c-.25.375-.5.5-.875.5h-2.5c-.75 0-1.25-.5-1.25-1.25s.5-1.25 1.25-1.25Z"/></svg>