<svg xmlns="http://www.w3.org/2000/svg" fill="none" viewBox="0 0 40 40"><g clip-path="url(#a)"><path fill="#1A597C" d="M11.324 36.893a2.5 2.5 0 1 0 4.852 1.213l1.972-7.888-4.124-4.123-2.7 10.798Zm1.164-15.322 3.215-12.43c.171-.658-.245-1.325-.931-1.49-3.428-.821-6.902 1.178-7.76 4.467l-1.974 7.666c-.17.658.246 1.325.932 1.49l4.965 1.19c.687.165 1.381-.235 1.553-.893ZM33.75 12.5H32.5c-.69 0-1.25.56-1.25 1.25V15h-2.715l-3.654-3.655A4.557 4.557 0 0 0 21.634 10a4.586 4.586 0 0 0-4.456 3.478l-2.103 8.416a2.501 2.501 0 0 0 .658 2.374l6.767 6.767V37.5a2.5 2.5 0 0 0 5 0v-6.465c0-1.335-.52-2.59-1.465-3.535l-3.657-3.658c.011-.039.038-.07.048-.11l1.554-6.216 1.752 1.752a2.5 2.5 0 0 0 1.767.733h3.75v18.75c0 .69.56 1.25 1.25 1.25h1.25c.691 0 1.25-.56 1.25-1.25V13.75c.001-.69-.558-1.25-1.249-1.25Zm-10-5a3.75 3.75 0 1 0 0-7.5 3.75 3.75 0 0 0 0 7.5Z"/></g><defs><clipPath id="a"><path fill="#fff" d="M0 0h40v40H0z"/></clipPath></defs></svg>