<svg viewBox="0 0 24 25" xmlns="http://www.w3.org/2000/svg">
<path d="M13.0286 2.5C14.1536 2.503 14.7246 2.509 15.2176 2.523L15.4116 2.53C15.6356 2.538 15.8566 2.548 16.1236 2.56C17.1876 2.61 17.9136 2.778 18.5506 3.025C19.2106 3.279 19.7666 3.623 20.3226 4.178C20.8311 4.6779 21.2245 5.28259 21.4756 5.95C21.7226 6.587 21.8906 7.313 21.9406 8.378C21.9526 8.644 21.9626 8.865 21.9706 9.09L21.9766 9.284C21.9916 9.776 21.9976 10.347 21.9996 11.472L22.0006 12.218V13.528C22.003 14.2574 21.9954 14.9868 21.9776 15.716L21.9716 15.91C21.9636 16.135 21.9536 16.356 21.9416 16.622C21.8916 17.687 21.7216 18.412 21.4756 19.05C21.2253 19.7178 20.8317 20.3226 20.3226 20.822C19.8225 21.3303 19.2179 21.7238 18.5506 21.975C17.9136 22.222 17.1876 22.39 16.1236 22.44C15.8863 22.4512 15.649 22.4612 15.4116 22.47L15.2176 22.476C14.7246 22.49 14.1536 22.497 13.0286 22.499L12.2826 22.5H10.9736C10.2438 22.5025 9.5141 22.4949 8.78458 22.477L8.59058 22.471C8.35319 22.462 8.11585 22.4517 7.87858 22.44C6.81458 22.39 6.08858 22.222 5.45058 21.975C4.78325 21.7244 4.17879 21.3308 3.67958 20.822C3.17062 20.3223 2.7768 19.7176 2.52558 19.05C2.27858 18.413 2.11058 17.687 2.06058 16.622C2.04944 16.3847 2.03944 16.1474 2.03058 15.91L2.02558 15.716C2.00715 14.9868 1.99881 14.2574 2.00058 13.528V11.472C1.99779 10.7426 2.00512 10.0132 2.02258 9.284L2.02958 9.09C2.03758 8.865 2.04758 8.644 2.05958 8.378C2.10958 7.313 2.27758 6.588 2.52458 5.95C2.77569 5.2819 3.1703 4.67702 3.68058 4.178C4.17967 3.66947 4.78372 3.27599 5.45058 3.025C6.08858 2.778 6.81358 2.61 7.87858 2.56C8.14458 2.548 8.36658 2.538 8.59058 2.53L8.78458 2.524C9.51377 2.50623 10.2432 2.49857 10.9726 2.501L13.0286 2.5ZM12.0006 7.5C10.6745 7.5 9.40273 8.02678 8.46504 8.96447C7.52736 9.90215 7.00058 11.1739 7.00058 12.5C7.00058 13.8261 7.52736 15.0979 8.46504 16.0355C9.40273 16.9732 10.6745 17.5 12.0006 17.5C13.3267 17.5 14.5984 16.9732 15.5361 16.0355C16.4738 15.0979 17.0006 13.8261 17.0006 12.5C17.0006 11.1739 16.4738 9.90215 15.5361 8.96447C14.5984 8.02678 13.3267 7.5 12.0006 7.5ZM12.0006 9.5C12.3945 9.49993 12.7847 9.57747 13.1487 9.72817C13.5127 9.87887 13.8434 10.0998 14.122 10.3783C14.4007 10.6569 14.6217 10.9875 14.7725 11.3515C14.9233 11.7154 15.001 12.1055 15.0011 12.4995C15.0011 12.8935 14.9236 13.2836 14.7729 13.6476C14.6222 14.0116 14.4013 14.3423 14.1228 14.621C13.8442 14.8996 13.5135 15.1206 13.1496 15.2714C12.7856 15.4223 12.3955 15.4999 12.0016 15.5C11.2059 15.5 10.4429 15.1839 9.88026 14.6213C9.31765 14.0587 9.00158 13.2956 9.00158 12.5C9.00158 11.7044 9.31765 10.9413 9.88026 10.3787C10.4429 9.81607 11.2059 9.5 12.0016 9.5M17.2516 6C16.9201 6 16.6021 6.1317 16.3677 6.36612C16.1333 6.60054 16.0016 6.91848 16.0016 7.25C16.0016 7.58152 16.1333 7.89946 16.3677 8.13388C16.6021 8.3683 16.9201 8.5 17.2516 8.5C17.5831 8.5 17.901 8.3683 18.1355 8.13388C18.3699 7.89946 18.5016 7.58152 18.5016 7.25C18.5016 6.91848 18.3699 6.60054 18.1355 6.36612C17.901 6.1317 17.5831 6 17.2516 6Z" />
</svg>
