<svg xmlns="http://www.w3.org/2000/svg" fill="none" viewBox="0 0 1440 131"><path fill="#fff" d="M1440 77.816V131H0V7.865l6.974-3.37L8.972 0l11.96.566 9.302 1.124 4.656 1.96 4.986-2.248 12.949-.278h14.288l7.973 3.37 8.313 1.403 4.986 3.658 5.974 1.681 6.974.845 7.984 4.494 10.301 4.774 15.277 2.247 11.96 1.41 11.969 4.774 14.618 5.897 15.277 8.71 9.642 3.092 2.657 3.37 5.316 1.124 4.646 4.495 5.655 3.092 6.305 5.618 11.969 5.339 16.606 6.742 4.656 2.247 11.96 1.123 7.973-.566 7.973 1.969 12.3 1.968 11.63 2.526 8.303-.844 10.631.565H339.9l6.644 1.124 8.303-6.463 9.302-1.68 6.984 1.401 6.974-1.123 7.314 1.402 9.632-.557 6.644.278 6.314-2.813 5.316-.836 1.998-3.937 5.975-2.247 4.656 1.968 2.318-4.781 5.655.287 5.316 3.928 4.986 2.814 9.631.844 4.317 1.96 8.972-1.681 8.972-.566 11.301-2.247 8.972-2.526 12.29-1.681 10.63-1.132 13.629-1.124 10.96-3.084 5.985-1.123 4.646-2.535.67-4.207 3.986-2.534h7.974l5.315-3.371 4.986-1.403 12.949.28 8.313-.28 2.657 2.526 7.314.566 10.291-1.123 2.658-1.403 5.655 3.084 5.316 3.937 4.985 2.247 4.976-.279 4.326-1.41 3.318-.558 1.668-3.092 5.645-1.124 3.318 1.403 5.984.287 2.988.836 4.326 3.371 5.316 1.124 4.646-2.805 3.986-1.69 10.971-5.052 2.658-2.534 8.962-.28 6.984.567 9.302-1.69 5.315-1.123 7.974-6.463 4.656-3.37 2.987.565 3.987 1.403 3.657-.28 3.317 2.527 2.328 1.968 5.985-.845 7.973.845 3.986-.566 1.989 3.937 2.997 1.402 6.645.845 5.315 1.403 8.633.566 3.986 2.804 7.644.845 6.984 1.69h10.96l9.972 5.33 4.986-1.123 6.304-.557 8.313 1.968 9.962 3.65 15.616.844 4.986 1.96 2.987 2.248 4.986.287 3.657-1.124 7.304-1.123 8.972.557 8.643 1.403 5.645 3.657 6.315-1.123 4.656-1.402h6.314l3.317 1.96 6.315-.558 2.658-1.968 5.645 1.402 5.315-1.124 5.316-2.526 8.313-1.402 5.975-1.124 12.961-.287 5.31-1.402 5.32-2.247 3.66 2.813 6.64.557 5.64-.557 7.32 2.526 9.3-1.124 6.32 2.805 5.98 1.968h11.63l8.63-2.804 6.65-3.937 3.98-4.495 9.65-2.247 11.96-3.65 5.64-4.215 8.64.279 5.32-1.124 8.63-.279 7.64 1.969 5.99 4.773 7.97 1.123 6.32 1.69 4.98 1.96 5.98.287 3.98 3.371 3.66 2.247 12.96.28 8.64.844 3.65 2.247 2.66 2.805 5.98.566 6.65-1.124 9.63 1.969 7.64.279 25.26 2.247 17.94 1.402 7.64-1.402 7.97-1.403 4.99.28 5.31 1.123 2.66-1.69 3.66-.557 9.97 2.804 9.63 1.411 6.97 3.371 6.98-.566 7.31-3.928h6.98l3.98-1.411 5.66-1.403 7.3-1.968 5.66.845 6.97 3.092 5.32 1.123 5.65 1.124 9.63-1.124 7.98.28 8.3 2.525Z"/></svg>