<svg xmlns="http://www.w3.org/2000/svg" fill="none" viewBox="0 0 1440 79"><path fill="#fff" d="M1440 0H0v70.693l8.3-2.1 7.98-.232 9.63.934 5.65-.934 5.32-.934 6.97-2.57 5.66-.703 7.3 1.636 5.66 1.166 3.98 1.173h6.98l7.31 3.266 6.98.47 6.97-2.802 9.63-1.173 9.97-2.332 3.66.464 2.66 1.405 5.31-.934 4.99-.232 7.97 1.166 7.64 1.166 17.94-1.166 25.26-1.869 7.64-.231 9.63-1.637 6.65.934 5.98-.47 2.66-2.332 3.65-1.868 8.64-.703 12.96-.231 3.66-1.869 3.98-2.802 5.98-.239 4.98-1.63 6.32-1.404 7.97-.934 5.99-3.968 7.64-1.636 8.63.231 5.32.934 8.64-.231 5.64 3.504 11.96 3.034 9.65 1.869 3.98 3.736 6.65 3.273 8.63 2.332h11.63l5.98-1.637 6.32-2.331 9.3.934 7.32-2.1 5.64.463 6.64-.463 3.66-2.34 5.32 1.869 5.31 1.166 12.961.239 5.975.934 8.313 1.166 5.316 2.1 5.315.934 5.645-1.166 2.658 1.636 6.315.464 3.317-1.63h6.314l4.656 1.166 6.315.934 5.645-3.04 8.643-1.166 8.972-.464 7.304.934 3.657.934 4.986-.239 2.987-1.868 4.986-1.63 15.616-.702 9.962-3.034 8.313-1.636 6.304.463 4.986.934 9.972-4.431h10.96l6.984-1.405 7.644-.702 3.986-2.332 8.633-.47 5.315-1.166 6.645-.703 2.997-1.166 1.989-3.273 3.986.47 7.973-.702 5.985.703 2.328-1.637 3.317-2.1 3.657.232 3.987-1.166 2.987-.47 4.656 2.802 7.974 5.373 5.315.934 9.302 1.405 6.984-.47 8.962.231 2.658 2.107 10.971 4.2 3.986 1.405 4.646 2.331 5.316-.934 4.326-2.802 2.988-.695 5.984-.24 3.318-1.165 5.645.934 1.668 2.57 3.318.464 4.326 1.173 4.976.232 4.985-1.868 5.316-3.273 5.655-2.564 2.658 1.166 10.291.934 7.314-.47 2.657-2.1 8.313.232 12.949-.232 4.986 1.166 5.315 2.802h7.974l3.986 2.107.67 3.498 4.646 2.107 5.985.934 10.96 2.563 13.629.934 10.63.941 12.29 1.398 8.972 2.1 11.301 1.868 8.972.471 8.972 1.398 4.317-1.63 9.631-.702 4.991-2.339 5.31-3.266 5.66-.239 2.31 3.976 4.66-1.637 5.98 1.868 1.99 3.273 5.32.696 6.31 2.338 6.65-.231 9.63.463 7.31-1.166 6.98.934 6.98-1.166 9.3 1.398 8.31 5.373 6.64-.934h12.96l10.63-.47 8.3.702 11.63-2.1 12.3-1.637 7.98-1.636 7.97.47 11.96-.934 4.65-1.868 16.61-5.605 11.97-4.438 6.3-4.671 5.66-2.57 4.65-3.737 5.31-.934 2.66-2.802 9.64-2.571 15.28-7.241 14.62-4.902 11.97-3.969 11.95-1.173 15.28-1.868 10.3-3.968 7.99-3.736 6.97-.703 5.98-1.397 4.98-3.042 8.31-1.166 7.98-2.802h14.29l12.94.232 4.99 1.868 4.66-1.63 9.3-.933L1431.03 6l2 3.736 6.97 2.803V0Z"/></svg>