<svg xmlns="http://www.w3.org/2000/svg" viewBox="0 0 40 40"><path fill-rule="evenodd" d="M25.946 7.692a44.829 44.829 0 0 1 1.995-3.422 35.934 35.934 0 0 0-2.014-2.113 3.124 3.124 0 0 0-4.355 0c-2 1.92-4.087 4.499-5.99 7.161-.28-.352-.561-.69-.84-1.01a2.94 2.94 0 0 0-4.484 0c-2.04 2.339-4.14 5.608-5.685 8.375.142-.011.284-.017.427-.017h21.12a3.626 3.626 0 0 1-.3-.486c-.558-1.088-.512-2.328-.02-3.367.153-.323.318-.66.491-1.005a3.619 3.619 0 0 1-.408-.634c-.57-1.13-.494-2.42.063-3.482Zm8.097-5.846a1.137 1.137 0 0 0-1.616 0c-1.65 1.651-3.47 4.59-4.636 6.813-.275.525-.287 1.102-.049 1.575.236.467.697.79 1.283.856-.501.908-.96 1.807-1.342 2.615-.243.513-.243 1.068-.01 1.523.237.46.692.777 1.273.84.707.076 1.69.144 3.039.17v2.512H5c-2.015 0-3.881 1.679-3.562 3.919C2.735 31.76 10.55 38.748 20 38.748c9.45 0 17.264-6.989 18.56-16.08.32-2.24-1.546-3.92-3.56-3.92h-.515v-2.511a34.981 34.981 0 0 0 3.04-.17c.58-.063 1.035-.38 1.272-.84.234-.455.233-1.01-.01-1.523a47.7 47.7 0 0 0-1.342-2.615c.586-.066 1.047-.39 1.283-.856.239-.473.226-1.05-.05-1.575-1.165-2.224-2.985-5.162-4.635-6.813Zm-8.54 33.004c5.353-1.985 9.341-6.78 10.17-12.593a.423.423 0 0 0-.125-.372.76.76 0 0 0-.548-.219H20.49c.572 2.624 2.803 3.215 4.766 3.736 1.383.367 2.634.698 3.076 1.68.326.977-.391 1.827-1.21 2.796-1.07 1.268-2.313 2.741-1.62 4.972ZM13.615 21.666H5a.76.76 0 0 0-.549.22.422.422 0 0 0-.125.37 15.74 15.74 0 0 0 2.772 6.924c.772-.852 1.779-1.301 2.779-1.747 1.371-.61 2.73-1.216 3.456-2.85a4.495 4.495 0 0 0 .282-2.917Z" clip-rule="evenodd"/></svg>