<svg viewBox="0 0 48 48" fill="none" xmlns="http://www.w3.org/2000/svg">
<rect x="1" y="1" width="46" height="46" rx="23" fill="#FF6033"/>
<rect x="1" y="1" width="46" height="46" rx="23" stroke="#FF6033" stroke-width="2"/>
<g clip-path="url(#clip0_3134_25600)">
<path fill-rule="evenodd" clip-rule="evenodd" d="M28.3693 33.7288C26.9869 33.6779 23.0691 33.1365 18.9661 29.0344C14.864 24.9314 14.3235 21.0146 14.2717 19.6312C14.1949 17.523 15.8096 15.4754 17.6749 14.6757C17.8995 14.5787 18.1455 14.5418 18.3887 14.5685C18.6319 14.5953 18.8639 14.6848 19.0621 14.8283C20.5981 15.9477 21.6579 17.6411 22.568 18.9726C22.7682 19.2652 22.8539 19.6212 22.8085 19.9728C22.7632 20.3244 22.5901 20.647 22.3222 20.8792L20.4493 22.2702C20.3588 22.3356 20.2951 22.4316 20.27 22.5403C20.2449 22.6491 20.2602 22.7632 20.313 22.8616C20.7373 23.6325 21.4918 24.7806 22.3558 25.6446C23.2208 26.5086 24.4227 27.3131 25.2474 27.7854C25.3508 27.8435 25.4725 27.8597 25.5874 27.8308C25.7024 27.8019 25.802 27.73 25.8656 27.6299L27.0848 25.7742C27.3089 25.4765 27.6396 25.277 28.0075 25.2176C28.3754 25.1582 28.7521 25.2435 29.0586 25.4555C30.4093 26.3906 31.9856 27.4322 33.1395 28.9096C33.2947 29.1092 33.3934 29.3468 33.4253 29.5976C33.4572 29.8484 33.4212 30.1031 33.321 30.3352C32.5174 32.2101 30.4842 33.8066 28.3693 33.7288Z" fill="white"/>
</g>
<defs>
<clipPath id="clip0_3134_25600">
<rect width="23.04" height="23.04" fill="white" transform="translate(12.4766 12.4805)"/>
</clipPath>
</defs>
</svg>
