<svg xmlns="http://www.w3.org/2000/svg" fill="none" viewBox="0 0 24 24"><g clip-path="url(#a)"><path fill="#fff" fill-rule="evenodd" d="M16.555 22.134c-1.44-.053-5.521-.617-9.795-4.89-4.273-4.274-4.836-8.355-4.89-9.796-.08-2.196 1.602-4.329 3.545-5.162a1.47 1.47 0 0 1 1.445.16c1.6 1.165 2.704 2.93 3.652 4.316a1.504 1.504 0 0 1-.256 1.986l-1.951 1.45a.48.48 0 0 0-.142.615c.442.803 1.228 2 2.128 2.9.9.9 2.153 1.738 3.012 2.23a.484.484 0 0 0 .644-.162l1.27-1.934a1.503 1.503 0 0 1 2.056-.332c1.407.974 3.049 2.06 4.25 3.598a1.469 1.469 0 0 1 .19 1.486c-.837 1.953-2.955 3.616-5.158 3.535Z" clip-rule="evenodd"/></g><defs><clipPath id="a"><path fill="#fff" d="M0 0h24v24H0z"/></clipPath></defs></svg>