<svg xmlns="http://www.w3.org/2000/svg" fill="none" viewBox="0 0 24 24"><path fill="#022C43" d="m9.538 20.802-6.254-6.256a1.585 1.585 0 0 1 0-2.234l8.951-8.951a4.314 4.314 0 0 1 2.697-1.1l5.246.062a1.626 1.626 0 0 1 1.596 1.6l.05 5.23a4.334 4.334 0 0 1-1.102 2.697l-8.95 8.952a1.585 1.585 0 0 1-2.234 0Zm9.104-14.277a1.128 1.128 0 1 0 0-2.257 1.128 1.128 0 0 0 0 2.257ZM8.169 15.924a.79.79 0 0 0 1.117 0l.572-.572c.361.236.762.405 1.183.5a2.23 2.23 0 0 0 2.142-.567c.386-.388.62-.903.655-1.45a3.05 3.05 0 0 0-.12-1.068v-.003a3.478 3.478 0 0 0-.396-.841v-.004a3.809 3.809 0 0 0-.508-.625 2.92 2.92 0 0 1-.314-.369 1.84 1.84 0 0 1-.242-.469v-.003a1.19 1.19 0 0 1-.054-.481v-.003a.755.755 0 0 1 .194-.448.768.768 0 0 1 .76-.151c.385.1.734.302 1.013.584.087.103.166.212.235.328l.027.043c.089.145.163.299.22.459.056.148.085.305.086.463a.79.79 0 1 0 1.58 0 2.943 2.943 0 0 0-.189-1.023 4.057 4.057 0 0 0-.37-.754l-.009-.014.57-.568a.79.79 0 0 0-1.119-1.117l-.551.553a3.582 3.582 0 0 0-1.145-.495 2.343 2.343 0 0 0-2.224.576c-.371.379-.6.873-.65 1.401-.04.387.003.779.127 1.148.106.317.26.617.454.889.145.202.307.392.483.567.112.111.211.233.297.365.09.142.163.296.215.456.046.161.065.33.054.496a.691.691 0 0 1-.198.44c-.07.07-.235.235-.696.138a2.22 2.22 0 0 1-1.039-.589 3.525 3.525 0 0 1-.312-.4 2.46 2.46 0 0 1-.223-.435.98.98 0 0 1-.06-.456.79.79 0 1 0-1.577-.114 2.818 2.818 0 0 0-.007.216c-.003.335.062.668.191.977.102.254.231.496.385.722l.01.014-.567.566a.791.791 0 0 0 0 1.116v.002Z"/></svg>