<svg xmlns="http://www.w3.org/2000/svg" fill="none" viewBox="0 0 40 40"><path fill="#1A597C" d="M39.594 22.063c-1-3.063-4.907-3.25-8.516-1.688-.625.266-1.437.5-2.375.672l-.734-2.843c.593-.297.968-.922.937-1.625-.047-.954-.843-1.704-1.797-1.657l-.53-2.093a1.732 1.732 0 0 0 .655-1.766 1.735 1.735 0 0 0-2.078-1.313s-7.61.063-10 .704c-2.375.64-3.187 4.64-3.187 4.64L9.89 21.875H0V25h26.297c3.062 0 11.094-.812 13.297-2.937Zm-20.14-8.64 5.905-.25.47 1.812c-1.595.078-4.438.219-6.97.375l.594-1.938Zm-1.642 5.406 8.907-.407.734 2.844c-3.64.531-8.344.594-10.578.61l.938-3.047Z"/><path fill="#1A597C" d="M34.438 32.188c-.891 0-1.75.203-2.5.562-.063.031-.125.047-.172.063l-.75-2.907c.14-.047.265-.093.406-.156a7.39 7.39 0 0 1 3.047-.672s5.39-.062 5.39-5.344a4.41 4.41 0 0 0-.047-.64c-3.359 2.437-12.359 2.843-13.5 2.843H0v4.22c.625 0 1.281-.141 1.86-.407.952-.438 2-.672 3.046-.672 1.032 0 2.078.235 3.016.672a4.55 4.55 0 0 0 1.906.406c.656 0 1.297-.14 1.875-.406a7.39 7.39 0 0 1 3.047-.672c1.047 0 2.078.219 3.031.672a4.45 4.45 0 0 0 1.907.406c.64 0 1.28-.14 1.875-.406a7.374 7.374 0 0 1 3.03-.672c1.063 0 2.079.219 3.032.672a4.55 4.55 0 0 0 1.906.406c.078 0 .157-.015.235-.015l.78 3.015a5.627 5.627 0 0 1-1.03.094c-.86 0-1.688-.188-2.422-.516a5.808 5.808 0 0 0-2.5-.562c-.89 0-1.75.203-2.5.562a5.955 5.955 0 0 1-4.844 0 5.807 5.807 0 0 0-2.5-.562c-.89 0-1.75.203-2.5.562a5.955 5.955 0 0 1-4.844 0 5.807 5.807 0 0 0-4.984 0c-.75.328-1.64.516-2.422.516v3.64c.781 0 1.672-.187 2.422-.515a5.738 5.738 0 0 1 2.484-.563c.89 0 1.735.204 2.5.563a5.954 5.954 0 0 0 4.844 0c.75-.36 1.61-.563 2.5-.563.89 0 1.75.204 2.5.563a5.955 5.955 0 0 0 4.844 0c.75-.36 1.61-.563 2.5-.563.89 0 1.75.204 2.5.563a5.954 5.954 0 0 0 4.843 0c.75-.36 1.61-.563 2.5-.563.891 0 1.75.204 2.5.563.735.328 1.5.516 2.438.516V33.25a5.759 5.759 0 0 1-2.438-.516 6.033 6.033 0 0 0-2.5-.547ZM16.688 9.563a3.375 3.375 0 1 0 0-6.75 3.375 3.375 0 0 0 0 6.75Z"/></svg>