<svg xmlns="http://www.w3.org/2000/svg" fill="none" viewBox="0 0 20 20"><path fill="#022C43" d="M17 2h-1V1c0-.6-.4-1-1-1s-1 .4-1 1v1H6V1c0-.6-.4-1-1-1S4 .4 4 1v1H3C1.3 2 0 3.3 0 5v1h20V5c0-1.7-1.3-3-3-3ZM0 17c0 1.7 1.3 3 3 3h14c1.7 0 3-1.3 3-3V8H0v9Zm15-7c.6 0 1 .4 1 1s-.4 1-1 1-1-.4-1-1 .4-1 1-1Zm0 4c.6 0 1 .4 1 1s-.4 1-1 1-1-.4-1-1 .4-1 1-1Zm-5-4c.6 0 1 .4 1 1s-.4 1-1 1-1-.4-1-1 .4-1 1-1Zm0 4c.6 0 1 .4 1 1s-.4 1-1 1-1-.4-1-1 .4-1 1-1Zm-5-4c.6 0 1 .4 1 1s-.4 1-1 1-1-.4-1-1 .4-1 1-1Zm0 4c.6 0 1 .4 1 1s-.4 1-1 1-1-.4-1-1 .4-1 1-1Z"/></svg>