<svg width="128" height="19" viewBox="0 0 128 19" fill="none" xmlns="http://www.w3.org/2000/svg">
<path d="M36.9942 4.15235C36.9307 4.15072 33.4159 4.1499 33.3516 4.1499C32.6922 4.1499 32.1008 4.2127 31.5775 4.3383C31.0541 4.46391 30.604 4.65231 30.2272 4.90351C29.8504 5.14424 29.5626 5.44778 29.3637 5.81412C29.1649 6.18045 29.0654 6.59913 29.0654 7.07013C29.0654 7.56207 29.1596 7.98074 29.348 8.32614C29.5469 8.66108 29.8086 8.94368 30.133 9.17395C30.468 9.39375 30.8395 9.58215 31.2477 9.73915C31.6664 9.89616 32.0956 10.0322 32.5352 10.1474C32.9748 10.2625 33.3987 10.3776 33.8069 10.4928C34.2255 10.6079 34.5971 10.7387 34.9216 10.8853C35.2565 11.0318 35.5182 11.215 35.7066 11.4348C35.9055 11.6546 36.0049 11.9319 36.0049 12.2669C36.0049 12.4867 35.9578 12.6803 35.8636 12.8478C35.7694 13.0153 35.6386 13.1618 35.4711 13.2874C35.3036 13.4025 35.1048 13.502 34.8745 13.5857C34.6547 13.659 34.4087 13.7165 34.1366 13.7584C33.8644 13.7898 33.5818 13.8055 33.2888 13.8055C33.2479 13.8055 29.4176 13.8051 29.3774 13.8043V15.2961C29.4178 15.2967 33.2481 15.297 33.2888 15.297C34.1575 15.297 34.9268 15.1871 35.5967 14.9673C36.277 14.7475 36.8108 14.3969 37.1981 13.9154C37.5854 13.4235 37.779 12.7902 37.779 12.0157C37.779 11.5237 37.6796 11.1103 37.4807 10.7754C37.2818 10.43 37.0149 10.1421 36.68 9.91186C36.3555 9.68159 35.984 9.48795 35.5653 9.33095C35.1571 9.17395 34.7332 9.03788 34.2936 8.92275C33.8644 8.79714 33.4405 8.68201 33.0219 8.57734C32.6137 8.46221 32.2421 8.33661 31.9072 8.20054C31.5827 8.06447 31.321 7.90224 31.1221 7.71384C30.9233 7.51497 30.8238 7.26376 30.8238 6.96023C30.8238 6.68809 30.918 6.45782 31.1064 6.26942C31.3053 6.07055 31.5932 5.91879 31.97 5.81412C32.3468 5.69898 32.8125 5.64142 33.3673 5.64142C33.4269 5.64142 36.9364 5.64242 36.9942 5.64444V4.15235Z" fill="white"/>
<path fill-rule="evenodd" clip-rule="evenodd" d="M45.4084 15.297C44.299 15.297 43.336 15.0929 42.5196 14.6847C41.7137 14.2765 41.0909 13.659 40.6513 12.8321C40.2222 12.0052 40.0076 10.969 40.0076 9.72345C40.0076 8.46744 40.2222 7.43123 40.6513 6.61483C41.0909 5.78795 41.7137 5.17041 42.5196 4.76221C43.336 4.354 44.299 4.1499 45.4084 4.1499C46.5388 4.1499 47.507 4.354 48.313 4.76221C49.1189 5.17041 49.7364 5.78795 50.1656 6.61483C50.6052 7.43123 50.825 8.46744 50.825 9.72345C50.825 10.969 50.6052 12.0052 50.1656 12.8321C49.7364 13.659 49.1189 14.2765 48.313 14.6847C47.507 15.0929 46.5388 15.297 45.4084 15.297ZM45.4084 13.8055C45.9841 13.8055 46.4917 13.727 46.9313 13.57C47.3814 13.413 47.7582 13.1723 48.0618 12.8478C48.3758 12.5233 48.6113 12.1151 48.7683 11.6232C48.9357 11.1312 49.0195 10.5608 49.0195 9.91186V9.56645C49.0195 8.89658 48.9357 8.31567 48.7683 7.82374C48.6113 7.3318 48.3758 6.92359 48.0618 6.59912C47.7582 6.27466 47.3814 6.03392 46.9313 5.87692C46.4917 5.71992 45.9841 5.64142 45.4084 5.64142C44.8432 5.64142 44.3356 5.71992 43.8855 5.87692C43.4459 6.03392 43.0691 6.27466 42.7551 6.59912C42.4516 6.92359 42.2213 7.3318 42.0643 7.82374C41.9073 8.31567 41.8288 8.89658 41.8288 9.56645V9.91186C41.8288 10.5608 41.9073 11.1312 42.0643 11.6232C42.2213 12.1151 42.4516 12.5233 42.7551 12.8478C43.0691 13.1723 43.4459 13.413 43.8855 13.57C44.3356 13.727 44.8432 13.8055 45.4084 13.8055Z" fill="white"/>
<path d="M53.5589 5.90937V15.1086H55.3173V10.5241H60.6868V9.0326H55.3173V6.47392C55.3173 6.12684 55.5987 5.84547 55.9458 5.84547H61.252V4.33826H55.13C54.2623 4.33826 53.5589 5.04167 53.5589 5.90937Z" fill="white"/>
<path d="M66.5012 15.1086V5.84547H62.9373V4.33826H71.855V5.84547H68.2597V15.1086H66.5012Z" fill="white"/>
<path fill-rule="evenodd" clip-rule="evenodd" d="M74.1835 4.33826V15.1086H75.9419V10.948H79.6786L81.7196 15.1086H83.635L81.3899 10.6497C81.9865 10.3985 82.447 10.006 82.7715 9.47221C83.096 8.9384 83.2582 8.31039 83.2582 7.58819C83.2582 6.93925 83.1326 6.37404 82.8814 5.89257C82.6302 5.40063 82.2534 5.0186 81.751 4.74646C81.2486 4.47433 80.6153 4.33826 79.8513 4.33826H74.1835ZM79.71 9.47221H75.9419V5.84547H79.71C80.0972 5.84547 80.4217 5.91351 80.6834 6.04957C80.945 6.18564 81.1439 6.38451 81.28 6.64618C81.416 6.89738 81.4841 7.20615 81.4841 7.57249C81.4841 8.16909 81.3271 8.63486 81.0131 8.9698C80.7095 9.30474 80.2752 9.47221 79.71 9.47221Z" fill="white"/>
<path d="M88.9756 15.1086V10.6811L84.7836 4.33826H86.7933L89.8705 9.1111H89.949L92.9948 4.33826H94.9259L90.734 10.6811V15.1086H88.9756Z" fill="white"/>
<path d="M96.2765 14.245V15.1086H105.179V13.6013H98.8514L105.037 5.20177V4.33826H96.6847V5.84547H102.431L96.2765 14.245Z" fill="white"/>
<path d="M109.305 15.1086C108.437 15.1086 107.734 14.4051 107.734 13.5374V5.90937C107.734 5.04167 108.437 4.33826 109.305 4.33826H116.086V5.84547H110.121C109.774 5.84547 109.492 6.12684 109.492 6.47392V8.8442H115.396V10.3514H109.492V12.9729C109.492 13.32 109.774 13.6013 110.121 13.6013H116.181V15.1086H109.305Z" fill="white"/>
<path d="M119.02 15.1086V4.33826H120.715L126.226 11.9842H126.304V4.33826H128V15.1086H126.367L120.794 7.35269H120.715V15.1086H119.02Z" fill="white"/>
<mask id="mask0_3029_36789" style="mask-type:alpha" maskUnits="userSpaceOnUse" x="0" y="0" width="20" height="19">
<path fill-rule="evenodd" clip-rule="evenodd" d="M6.00257 0C0.986177 0 -1.52792 6.06335 2.01664 9.61304L8.5661 16.172H0.826592V19H13.7271C18.7457 19 21.2588 12.9323 17.71 9.38385L11.1534 2.828H18.9143V0H6.00257ZM11.152 2.828H6.00257C3.50467 2.828 2.25279 5.84723 4.01779 7.61479L10.5722 14.1787L8.57603 16.172H13.7271C16.2261 16.172 17.4775 13.1506 15.7104 11.3837L9.1531 4.82713L11.152 2.828Z" fill="#0038FF"/>
</mask>
<g mask="url(#mask0_3029_36789)">
<g filter="url(#filter0_f_3029_36789)">
<g filter="url(#filter1_f_3029_36789)">
<path d="M69.37 4.48437C69.37 -7.14678 59.033 -16.5757 46.2817 -16.5757C33.5303 -16.5757 23.1934 -7.14678 23.1934 4.48437C23.1934 16.1155 33.5303 25.5444 46.2817 25.5444C59.033 25.5444 69.37 16.1155 69.37 4.48437Z" fill="#4E67E8"/>
</g>
<g filter="url(#filter2_f_3029_36789)">
<path d="M31.8451 8.8053C30.6673 2.47533 20.0137 -0.8514 8.04967 1.37483C-3.91433 3.60106 -12.6582 10.5372 -11.4804 16.8672C-10.3025 23.1972 0.351088 26.5239 12.3151 24.2977C24.2791 22.0714 33.023 15.1353 31.8451 8.8053Z" fill="#052DE9"/>
</g>
<g filter="url(#filter3_f_3029_36789)">
<path d="M26.6752 13.1722C7.76989 14.1698 1.94738 31.9842 -4.62756 31.4772C-12.8927 30.8398 -11.3527 14.1301 -4.62756 7.76348C3.29955 0.258932 39.487 12.4961 26.6752 13.1722Z" fill="#00EAFF"/>
</g>
<g filter="url(#filter4_f_3029_36789)">
<path d="M6.39202 11.8706C0.585817 11.8706 -2.14355 8.78311 -2.14355 4.61961C-2.14355 -4.06809 49.1093 -7.15708 56.8707 0.0879688C62.5747 5.41244 61.8432 12.9099 55.8308 15.5722C49.0361 18.5808 44.8775 17.9504 38.2018 15.5722C32.6318 13.5879 30.8178 11.7186 24.697 10.0452C18.9681 8.47888 11.5494 11.8706 6.39202 11.8706Z" fill="#BADAFF"/>
</g>
<g filter="url(#filter5_f_3029_36789)">
<path d="M10.2801 28.1478C10.2801 23.2004 5.80778 19.1897 0.290921 19.1897C-5.22594 19.1897 -9.69824 23.2004 -9.69824 28.1478C-9.69824 33.0953 -5.22594 37.106 0.290921 37.106C5.80778 37.106 10.2801 33.0953 10.2801 28.1478Z" fill="#303E57"/>
</g>
</g>
</g>
<defs>
<filter id="filter0_f_3029_36789" x="-18.4791" y="-23.4679" width="94.7414" height="67.466" filterUnits="userSpaceOnUse" color-interpolation-filters="sRGB">
<feFlood flood-opacity="0" result="BackgroundImageFix"/>
<feBlend mode="normal" in="SourceGraphic" in2="BackgroundImageFix" result="shape"/>
<feGaussianBlur stdDeviation="3.4461" result="effect1_foregroundBlur_3029_36789"/>
</filter>
<filter id="filter1_f_3029_36789" x="13.0521" y="-26.717" width="66.4593" height="62.4027" filterUnits="userSpaceOnUse" color-interpolation-filters="sRGB">
<feFlood flood-opacity="0" result="BackgroundImageFix"/>
<feBlend mode="normal" in="SourceGraphic" in2="BackgroundImageFix" result="shape"/>
<feGaussianBlur stdDeviation="5.07064" result="effect1_foregroundBlur_3029_36789"/>
</filter>
<filter id="filter2_f_3029_36789" x="-25.1086" y="-12.8386" width="70.5815" height="51.3496" filterUnits="userSpaceOnUse" color-interpolation-filters="sRGB">
<feFlood flood-opacity="0" result="BackgroundImageFix"/>
<feBlend mode="normal" in="SourceGraphic" in2="BackgroundImageFix" result="shape"/>
<feGaussianBlur stdDeviation="6.76086" result="effect1_foregroundBlur_3029_36789"/>
</filter>
<filter id="filter3_f_3029_36789" x="-17.0245" y="-1.42394" width="53.1799" height="39.6726" filterUnits="userSpaceOnUse" color-interpolation-filters="sRGB">
<feFlood flood-opacity="0" result="BackgroundImageFix"/>
<feBlend mode="normal" in="SourceGraphic" in2="BackgroundImageFix" result="shape"/>
<feGaussianBlur stdDeviation="3.38043" result="effect1_foregroundBlur_3029_36789"/>
</filter>
<filter id="filter4_f_3029_36789" x="-8.90441" y="-10.7159" width="76.4348" height="35.0759" filterUnits="userSpaceOnUse" color-interpolation-filters="sRGB">
<feFlood flood-opacity="0" result="BackgroundImageFix"/>
<feBlend mode="normal" in="SourceGraphic" in2="BackgroundImageFix" result="shape"/>
<feGaussianBlur stdDeviation="3.38043" result="effect1_foregroundBlur_3029_36789"/>
</filter>
<filter id="filter5_f_3029_36789" x="-19.8395" y="9.04817" width="40.2611" height="38.1991" filterUnits="userSpaceOnUse" color-interpolation-filters="sRGB">
<feFlood flood-opacity="0" result="BackgroundImageFix"/>
<feBlend mode="normal" in="SourceGraphic" in2="BackgroundImageFix" result="shape"/>
<feGaussianBlur stdDeviation="5.07064" result="effect1_foregroundBlur_3029_36789"/>
</filter>
</defs>
</svg>
