<svg xmlns="http://www.w3.org/2000/svg" fill="none" viewBox="0 0 24 24"><path fill="#022C43" d="M12.105 10.181c0-.417-.264-.793-.65-.813a3.175 3.175 0 0 0-.17-.005c-1.864 0-3.374 1.626-3.374 3.632 0 2.005 1.51 3.63 3.373 3.63.057 0 .114 0 .17-.004.387-.02.651-.396.651-.813V10.18ZM2.844 13.91C2.378 13.91 2 13.501 2 13s.378-.91.844-.91h1.69c.466 0 .844.408.844.91s-.378.91-.845.91H2.844ZM5.48 17.28a.803.803 0 0 1 1.194 0c.33.354.33.93 0 1.285L5.48 19.85a.803.803 0 0 1-1.194 0 .96.96 0 0 1 0-1.285l1.194-1.286ZM5.48 8.72a.803.803 0 0 0 1.194 0 .959.959 0 0 0 0-1.285L5.48 6.15a.803.803 0 0 0-1.194 0 .959.959 0 0 0 0 1.285L5.48 8.721ZM10.444 20.273c0-.502.378-.91.845-.91.466 0 .844.408.844.91v1.818c0 .502-.378.909-.844.909-.466 0-.845-.407-.845-.91v-1.817ZM10.444 5.727c0 .502.378.91.845.91.466 0 .844-.408.844-.91V3.91c0-.502-.378-.909-.844-.909-.466 0-.845.407-.845.91v1.817ZM15.511 3.91c0-.503-.378-.91-.844-.91-.467 0-.845.407-.845.91v18.18c0 .503.378.91.845.91.466 0 .844-.407.844-.91v-2.727l1.08 1.162a.803.803 0 0 0 1.194 0 .959.959 0 0 0 0-1.286l-2.171-2.337a.867.867 0 0 0-.103-.095V13.91h3.873l1.923 2.07a.803.803 0 0 0 1.195 0 .96.96 0 0 0 0-1.285l-.73-.785h.495c.466 0 .844-.407.844-.909s-.378-.91-.844-.91h-.857l1.092-1.175a.959.959 0 0 0 0-1.285.803.803 0 0 0-1.194 0l-2.172 2.337a.908.908 0 0 0-.096.124H15.51V9.178a.867.867 0 0 0 .103-.094l2.17-2.337a.959.959 0 0 0 0-1.286.803.803 0 0 0-1.193 0l-1.08 1.162V3.909Z"/></svg>