<svg xmlns="http://www.w3.org/2000/svg" fill="none" viewBox="0 0 22 20"><path fill="#022C43" d="M10.105 7.181c0-.417-.264-.793-.65-.813a3.178 3.178 0 0 0-.17-.005C7.42 6.363 5.91 7.99 5.91 9.994c0 2.006 1.51 3.632 3.373 3.632a3.2 3.2 0 0 0 .17-.005c.387-.02.651-.396.651-.813V7.18ZM.844 10.91C.378 10.91 0 10.501 0 10s.378-.91.844-.91h1.69c.466 0 .844.408.844.91s-.378.91-.845.91H.844Zm2.636 3.37a.803.803 0 0 1 1.194 0c.33.354.33.93 0 1.285L3.48 16.85a.803.803 0 0 1-1.194 0 .96.96 0 0 1 0-1.286l1.194-1.286Zm0-8.56a.803.803 0 0 0 1.194 0 .959.959 0 0 0 0-1.285L3.48 3.15a.803.803 0 0 0-1.194 0 .959.959 0 0 0 0 1.285L3.48 5.721Zm4.964 11.553c0-.502.379-.91.845-.91.466 0 .844.408.844.91v1.818c0 .502-.378.909-.844.909-.466 0-.845-.407-.845-.91v-1.817Zm0-14.546c0 .502.379.91.845.91.466 0 .844-.408.844-.91V.91c0-.503-.378-.91-.843-.91-.466 0-.845.407-.845.91v1.817ZM13.511.91c0-.503-.378-.91-.844-.91-.467 0-.845.407-.845.91v18.18c0 .503.378.91.845.91.466 0 .844-.407.844-.91v-2.727l1.08 1.162a.803.803 0 0 0 1.194 0 .959.959 0 0 0 0-1.286l-2.171-2.337a.867.867 0 0 0-.103-.095V10.91h3.873l1.923 2.07a.803.803 0 0 0 1.195 0 .96.96 0 0 0 0-1.285l-.73-.785h.495c.466 0 .844-.407.844-.909s-.378-.91-.844-.91h-.857l1.092-1.175a.959.959 0 0 0 0-1.285.803.803 0 0 0-1.194 0l-2.172 2.337a.908.908 0 0 0-.096.124h-3.53V6.178a.867.867 0 0 0 .103-.094l2.17-2.337a.959.959 0 0 0 0-1.286.803.803 0 0 0-1.193 0l-1.08 1.162V.909Z"/></svg>